<?xml version="1.0" encoding="UTF-8" standalone="no"?>
<!DOCTYPE svg PUBLIC "-//W3C//DTD SVG 1.1//EN" "http://www.w3.org/Graphics/SVG/1.1/DTD/svg11.dtd">
<svg width="100%" height="100%" viewBox="0 0 512 512" version="1.1" xmlns="http://www.w3.org/2000/svg" xmlns:xlink="http://www.w3.org/1999/xlink" xml:space="preserve" xmlns:serif="http://www.serif.com/" style="fill-rule:evenodd;clip-rule:evenodd;stroke-linejoin:round;stroke-miterlimit:1.41421;">
    <g transform="matrix(-1,-1.22465e-16,1.22465e-16,-1,512,512)">
        <path d="M256,8C119,8 8,119 8,256C8,393 119,504 256,504C393,504 504,393 504,256C504,119 393,8 256,8ZM256,456C145.5,456 56,366.5 56,256C56,145.5 145.5,56 256,56C366.5,56 456,145.5 456,256C456,366.5 366.5,456 256,456ZM385.9,249.9L366.3,230.3C361.5,225.5 353.8,225.6 349.1,230.5L282,300.8L282,140C282,133.4 276.6,128 270,128L242,128C235.4,128 230,133.4 230,140L230,300.8L162.9,230.5C158.2,225.6 150.5,225.5 145.7,230.3L126.1,249.9C121.4,254.6 121.4,262.2 126.1,266.9L247.5,388.3C252.2,393 259.8,393 264.5,388.3L385.9,266.9C390.6,262.2 390.6,254.6 385.9,249.9Z" style="fill:rgb(88,88,88);fill-rule:nonzero;"/>
    </g>
</svg>
