<?xml version="1.0" encoding="UTF-8" standalone="no"?><!DOCTYPE svg PUBLIC "-//W3C//DTD SVG 1.1//EN" "http://www.w3.org/Graphics/SVG/1.1/DTD/svg11.dtd"><svg width="100%" height="100%" viewBox="0 0 512 512" version="1.1" xmlns="http://www.w3.org/2000/svg" xmlns:xlink="http://www.w3.org/1999/xlink" xml:space="preserve" xmlns:serif="http://www.serif.com/" style="fill-rule:evenodd;clip-rule:evenodd;stroke-linejoin:round;stroke-miterlimit:1.41421;"><path d="M256,504c-137,0 -248,-111 -248,-248c0,-137 111,-248 248,-248c137,0 248,111 248,248c0,137 -111,248 -248,248Zm116,-292l-116,0l0,-70.9c0,-10.7 -13,-16.1 -20.5,-8.5l-114.3,114.9c-4.7,4.7 -4.7,12.2 0,16.9l114.3,114.9c7.6,7.6 20.5,2.2 20.5,-8.5l0,-70.8l116,0c6.6,0 12,-5.4 12,-12l0,-64c0,-6.6 -5.4,-12 -12,-12Z" style="fill:#4d4d4d;fill-rule:nonzero;"/></svg>