<?xml version="1.0" encoding="UTF-8" standalone="no"?>
<!DOCTYPE svg PUBLIC "-//W3C//DTD SVG 1.1//EN" "http://www.w3.org/Graphics/SVG/1.1/DTD/svg11.dtd">
<svg width="100%" height="100%" viewBox="0 0 512 512" version="1.1" xmlns="http://www.w3.org/2000/svg" xmlns:xlink="http://www.w3.org/1999/xlink" xml:space="preserve" xmlns:serif="http://www.serif.com/" style="fill-rule:evenodd;clip-rule:evenodd;stroke-linejoin:round;stroke-miterlimit:1.41421;">
    <path d="M216,0L296,0C309.3,0 320,10.7 320,24L320,192L407.7,192C425.5,192 434.4,213.5 421.8,226.1L269.7,378.3C262.2,385.8 249.9,385.8 242.4,378.3L90.1,226.1C77.5,213.5 86.4,192 104.2,192L192,192L192,24C192,10.7 202.7,0 216,0ZM512,376L512,488C512,501.3 501.3,512 488,512L24,512C10.7,512 0,501.3 0,488L0,376C0,362.7 10.7,352 24,352L170.7,352L219.7,401C239.8,421.1 272.2,421.1 292.3,401L341.3,352L488,352C501.3,352 512,362.7 512,376ZM388,464C388,453 379,444 368,444C357,444 348,453 348,464C348,475 357,484 368,484C379,484 388,475 388,464ZM452,464C452,453 443,444 432,444C421,444 412,453 412,464C412,475 421,484 432,484C443,484 452,475 452,464Z" style="fill:rgb(88,88,88);fill-rule:nonzero;"/>
</svg>
