<?xml version="1.0" encoding="UTF-8" standalone="no"?>
<!DOCTYPE svg PUBLIC "-//W3C//DTD SVG 1.1//EN" "http://www.w3.org/Graphics/SVG/1.1/DTD/svg11.dtd">
<svg width="100%" height="100%" viewBox="0 0 512 512" version="1.1" xmlns="http://www.w3.org/2000/svg" xmlns:xlink="http://www.w3.org/1999/xlink" xml:space="preserve" xmlns:serif="http://www.serif.com/" style="fill-rule:evenodd;clip-rule:evenodd;stroke-linejoin:round;stroke-miterlimit:1.41421;">
    <path d="M328,256C328,295.8 295.8,328 256,328C216.2,328 184,295.8 184,256C184,216.2 216.2,184 256,184C295.8,184 328,216.2 328,256ZM432,184C392.2,184 360,216.2 360,256C360,295.8 392.2,328 432,328C471.8,328 504,295.8 504,256C504,216.2 471.8,184 432,184ZM80,184C40.2,184 8,216.2 8,256C8,295.8 40.2,328 80,328C119.8,328 152,295.8 152,256C152,216.2 119.8,184 80,184Z" style="fill:rgb(88,88,88);fill-rule:nonzero;"/>
</svg>
