<?xml version="1.0" encoding="UTF-8" standalone="no"?>
<!DOCTYPE svg PUBLIC "-//W3C//DTD SVG 1.1//EN" "http://www.w3.org/Graphics/SVG/1.1/DTD/svg11.dtd">
<svg width="100%" height="100%" viewBox="0 0 384 512" version="1.1" xmlns="http://www.w3.org/2000/svg" xmlns:xlink="http://www.w3.org/1999/xlink" xml:space="preserve" xmlns:serif="http://www.serif.com/" style="fill-rule:evenodd;clip-rule:evenodd;stroke-linejoin:round;stroke-miterlimit:1.41421;">
    <path d="M224,136L224,0L160.4,0L160.4,32L128.4,32L128.4,0L24,0C10.7,0 0,10.7 0,24L0,488C0,501.3 10.7,512 24,512L360,512C373.3,512 384,501.3 384,488L384,160L248,160C234.8,160 224,149.2 224,136ZM95.9,32L127.9,32L127.9,64L95.9,64L95.9,32ZM128.2,416C95,416 70.2,385.6 76.8,353.1L96.4,256L96.4,224L128.4,224L128.4,192L96.4,192L96.4,160L128.4,160L128.4,128L96.4,128L96.4,96L128.4,96L128.4,64L160.4,64L160.4,96L128.4,96L128.4,128L160.4,128L160.4,160L128.4,160L128.4,192L160.4,192L160.4,224L128.4,224L128.4,256L150.5,256C156.2,256 161.2,260.1 162.3,265.7L179.6,353.4C186,385.8 161.2,416 128.2,416ZM160.9,363C160.9,377.9 146.4,390 128.5,390C110.6,390 96,378 96,363C96,348.1 110.5,336 128.4,336C146.3,336 160.9,348.1 160.9,363ZM384,121.9L384,128L256,128L256,0L262.1,0C268.5,0 274.6,2.5 279.1,7L377,105C381.5,109.5 384,115.6 384,121.9Z" style="fill:rgb(88,88,88);fill-rule:nonzero;"/>
</svg>
