<?xml version="1.0" encoding="UTF-8" standalone="no"?><!DOCTYPE svg PUBLIC "-//W3C//DTD SVG 1.1//EN" "http://www.w3.org/Graphics/SVG/1.1/DTD/svg11.dtd"><svg width="100%" height="100%" viewBox="0 0 512 512" version="1.1" xmlns="http://www.w3.org/2000/svg" xmlns:xlink="http://www.w3.org/1999/xlink" xml:space="preserve" xmlns:serif="http://www.serif.com/" style="fill-rule:evenodd;clip-rule:evenodd;stroke-linejoin:round;stroke-miterlimit:1.41421;"><path d="M256,8c-137,0 -248,111 -248,248c0,137 111,248 248,248c137,0 248,-111 248,-248c0,-137 -111,-248 -248,-248Zm144,276c0,6.6 -5.4,12 -12,12l-92,0l0,92c0,6.6 -5.4,12 -12,12l-56,0c-6.6,0 -12,-5.4 -12,-12l0,-92l-92,0c-6.6,0 -12,-5.4 -12,-12l0,-56c0,-6.6 5.4,-12 12,-12l92,0l0,-92c0,-6.6 5.4,-12 12,-12l56,0c6.6,0 12,5.4 12,12l0,92l92,0c6.6,0 12,5.4 12,12l0,56Z" style="fill:#4d4d4d;fill-rule:nonzero;"/></svg>