<?xml version="1.0" encoding="UTF-8" standalone="no"?>
<!DOCTYPE svg PUBLIC "-//W3C//DTD SVG 1.1//EN" "http://www.w3.org/Graphics/SVG/1.1/DTD/svg11.dtd">
<svg width="100%" height="100%" viewBox="0 0 448 512" version="1.1" xmlns="http://www.w3.org/2000/svg" xmlns:xlink="http://www.w3.org/1999/xlink" xml:space="preserve" xmlns:serif="http://www.serif.com/" style="fill-rule:evenodd;clip-rule:evenodd;stroke-linejoin:round;stroke-miterlimit:1.41421;">
    <path d="M312,320L448,320L448,56C448,42.7 437.3,32 424,32L24,32C10.7,32 0,42.7 0,56L0,456C0,469.3 10.7,480 24,480L288,480L288,344C288,330.8 298.8,320 312,320ZM441,375L343,473C338.5,477.5 332.4,480 326,480L320,480L320,352L448,352L448,358.1C448,364.4 445.5,370.5 441,375Z" style="fill:rgb(88,88,88);fill-rule:nonzero;"/>
</svg>
