<?xml version="1.0" encoding="UTF-8" standalone="no"?><!DOCTYPE svg PUBLIC "-//W3C//DTD SVG 1.1//EN" "http://www.w3.org/Graphics/SVG/1.1/DTD/svg11.dtd"><svg width="100%" height="100%" viewBox="0 0 512 512" version="1.1" xmlns="http://www.w3.org/2000/svg" xmlns:xlink="http://www.w3.org/1999/xlink" xml:space="preserve" xmlns:serif="http://www.serif.com/" style="fill-rule:evenodd;clip-rule:evenodd;stroke-linejoin:round;stroke-miterlimit:1.41421;"><path d="M256,8c-137,0 -248,111 -248,248c0,137 111,248 248,248c137,0 248,-111 248,-248c0,-137 -111,-248 -248,-248Zm121.6,313.1c4.7,4.7 4.7,12.3 0,17l-39.6,39.5c-4.7,4.7 -12.3,4.7 -17,0l-65,-65.6l-65.1,65.6c-4.7,4.7 -12.3,4.7 -17,0l-39.5,-39.6c-4.7,-4.7 -4.7,-12.3 0,-17l65.6,-65l-65.6,-65.1c-4.7,-4.7 -4.7,-12.3 0,-17l39.6,-39.6c4.7,-4.7 12.3,-4.7 17,0l65,65.7l65.1,-65.6c4.7,-4.7 12.3,-4.7 17,0l39.6,39.6c4.7,4.7 4.7,12.3 0,17l-65.7,65l65.6,65.1Z" style="fill:#4d4d4d;fill-rule:nonzero;"/></svg>