<?xml version="1.0" encoding="UTF-8" standalone="no"?>
<!DOCTYPE svg PUBLIC "-//W3C//DTD SVG 1.1//EN" "http://www.w3.org/Graphics/SVG/1.1/DTD/svg11.dtd">
<svg width="100%" height="100%" viewBox="0 0 512 512" version="1.1" xmlns="http://www.w3.org/2000/svg" xmlns:xlink="http://www.w3.org/1999/xlink" xml:space="preserve" xmlns:serif="http://www.serif.com/" style="fill-rule:evenodd;clip-rule:evenodd;stroke-linejoin:round;stroke-miterlimit:1.41421;">
    <path d="M296,384L216,384C202.7,384 192,373.3 192,360L192,192L104.3,192C86.5,192 77.6,170.5 90.2,157.9L242.3,5.7C249.8,-1.8 262.1,-1.8 269.6,5.7L421.8,157.9C434.4,170.5 425.5,192 407.7,192L320,192L320,360C320,373.3 309.3,384 296,384ZM512,376L512,488C512,501.3 501.3,512 488,512L24,512C10.7,512 0,501.3 0,488L0,376C0,362.7 10.7,352 24,352L160,352L160,360C160,390.9 185.1,416 216,416L296,416C326.9,416 352,390.9 352,360L352,352L488,352C501.3,352 512,362.7 512,376ZM388,464C388,453 379,444 368,444C357,444 348,453 348,464C348,475 357,484 368,484C379,484 388,475 388,464ZM452,464C452,453 443,444 432,444C421,444 412,453 412,464C412,475 421,484 432,484C443,484 452,475 452,464Z" style="fill:rgb(88,88,88);fill-rule:nonzero;"/>
</svg>
